<svg xmlns="http://www.w3.org/2000/svg" width="100" viewBox="0 0 150 75" height="40" version="1.0"><defs><clipPath id="a"><path d="M 81.539062 20.9375 L 111 20.9375 L 111 58.40625 L 81.539062 58.40625 Z M 81.539062 20.9375"/></clipPath><clipPath id="b"><path d="M 114 20.9375 L 143 20.9375 L 143 58.40625 L 114 58.40625 Z M 114 20.9375"/></clipPath></defs><g fill="#FFF"><g><g><path d="M 33.859375 -27.6875 C 33.859375 -23.15625 32.519531 -19.648438 29.84375 -17.171875 C 27.164062 -14.703125 23.363281 -13.46875 18.4375 -13.46875 L 15.359375 -13.46875 L 15.359375 0 L 4.390625 0 L 4.390625 -40.59375 L 18.4375 -40.59375 C 23.5625 -40.59375 27.410156 -39.472656 29.984375 -37.234375 C 32.566406 -34.992188 33.859375 -31.8125 33.859375 -27.6875 Z M 15.359375 -22.40625 L 17.359375 -22.40625 C 19.003906 -22.40625 20.3125 -22.867188 21.28125 -23.796875 C 22.257812 -24.722656 22.75 -26 22.75 -27.625 C 22.75 -30.375 21.226562 -31.75 18.1875 -31.75 L 15.359375 -31.75 Z M 15.359375 -22.40625" transform="translate(7.107 59.46)"/></g></g></g><g fill="#FFF"><g><g><path d="M 15.359375 -14.78125 L 15.359375 0 L 4.390625 0 L 4.390625 -40.59375 L 17.6875 -40.59375 C 28.71875 -40.59375 34.234375 -36.597656 34.234375 -28.609375 C 34.234375 -23.898438 31.941406 -20.257812 27.359375 -17.6875 L 39.1875 0 L 26.75 0 L 18.140625 -14.78125 Z M 15.359375 -23.015625 L 17.40625 -23.015625 C 21.238281 -23.015625 23.15625 -24.710938 23.15625 -28.109375 C 23.15625 -30.898438 21.28125 -32.296875 17.53125 -32.296875 L 15.359375 -32.296875 Z M 15.359375 -23.015625" transform="translate(43.04 59.46)"/></g></g></g><g clip-path="url(#a)"><path fill="#FFF" d="M 106.417969 50.515625 C 100.425781 50.515625 95.550781 45.644531 95.550781 39.65625 C 95.550781 33.671875 100.425781 28.800781 106.417969 28.800781 C 108.597656 28.800781 110.367188 27.035156 110.367188 24.851562 C 110.367188 22.671875 108.597656 20.90625 106.417969 20.90625 C 97.851562 20.90625 90.609375 26.667969 88.367188 34.515625 L 86.730469 34.515625 C 83.886719 34.515625 81.585938 36.820312 81.585938 39.65625 C 81.585938 42.496094 83.886719 44.796875 86.730469 44.796875 L 88.367188 44.796875 C 90.609375 52.648438 97.851562 58.410156 106.417969 58.410156 C 108.597656 58.410156 110.367188 56.644531 110.367188 54.460938 C 110.367188 52.28125 108.597656 50.515625 106.417969 50.515625 Z M 106.417969 50.515625"/></g><g clip-path="url(#b)"><path fill="#FFF" d="M 137.855469 34.515625 L 136.140625 34.515625 C 133.898438 26.667969 126.65625 20.90625 118.09375 20.90625 C 115.910156 20.90625 114.140625 22.671875 114.140625 24.851562 C 114.140625 27.035156 115.910156 28.800781 118.09375 28.800781 C 124.082031 28.800781 128.957031 33.671875 128.957031 39.65625 C 128.957031 45.644531 124.082031 50.515625 118.09375 50.515625 C 115.910156 50.515625 114.140625 52.28125 114.140625 54.460938 C 114.140625 56.644531 115.910156 58.410156 118.09375 58.410156 C 126.65625 58.410156 133.898438 52.648438 136.140625 44.796875 L 137.855469 44.796875 C 140.695312 44.796875 143 42.496094 143 39.65625 C 143 36.820312 140.695312 34.515625 137.855469 34.515625 Z M 137.855469 34.515625"/></g><path fill="#FFF" d="M 117.398438 44.796875 C 120.238281 44.796875 122.542969 42.496094 122.542969 39.65625 C 122.542969 36.820312 120.242188 34.515625 117.398438 34.515625 L 107.109375 34.515625 C 104.269531 34.515625 101.964844 36.816406 101.964844 39.65625 C 101.964844 42.496094 104.265625 44.796875 107.109375 44.796875 Z M 117.398438 44.796875"/></svg>